<?xml version="1.0" standalone="no"?>
<!DOCTYPE svg PUBLIC "-//W3C//DTD SVG 20010904//EN"
 "http://www.w3.org/TR/2001/REC-SVG-20010904/DTD/svg10.dtd">
<svg version="1.0" xmlns="http://www.w3.org/2000/svg"
 width="155.000000pt" height="155.000000pt" viewBox="0 0 155.000000 155.000000"
 preserveAspectRatio="xMidYMid meet">
<metadata>
Created by potrace 1.11, written by Peter Selinger 2001-2013
</metadata>
<g transform="translate(0.000000,155.000000) scale(0.100000,-0.100000)"
fill="#000000" stroke="none">
<path d="M735 1520 c-3 -5 -21 -10 -40 -10 -50 0 -153 -35 -220 -75 -301 -181
-379 -575 -169 -851 110 -144 262 -224 439 -230 179 -6 326 54 448 182 257
269 196 703 -125 897 -67 40 -171 77 -220 77 -16 0 -27 4 -24 8 3 5 -1 9 -9 9
-8 0 -11 -5 -8 -11 3 -6 0 -5 -8 2 -15 14 -33 17 -25 4 3 -5 -1 -9 -9 -9 -8 0
-12 4 -9 9 3 4 1 8 -5 8 -5 0 -13 -4 -16 -10z m199 -109 c156 -55 283 -192
326 -352 7 -24 13 -75 14 -114 11 -350 -350 -609 -676 -485 -290 110 -416 437
-273 709 72 137 207 235 365 265 52 10 187 -3 244 -23z"/>
<path d="M716 1379 c-105 -29 -162 -133 -130 -238 25 -84 86 -125 190 -125 82
0 125 20 161 74 32 47 29 55 -23 57 -41 2 -49 -1 -79 -32 -35 -38 -67 -44
-102 -20 -36 26 -47 85 -29 163 16 68 115 76 139 12 11 -28 15 -30 64 -30 53
0 53 0 47 28 -9 40 -36 73 -75 93 -39 20 -121 29 -163 18z"/>
<path d="M572 948 l3 -33 195 0 195 0 3 33 3 32 -201 0 -201 0 3 -32z"/>
<path d="M592 870 c-4 -3 -7 -85 -7 -183 l0 -178 55 3 55 3 0 70 0 70 38 3 38
3 34 -75 34 -76 61 0 c33 0 60 2 60 3 0 2 -17 37 -39 77 l-38 73 39 37 c34 33
38 42 33 70 -11 61 -34 85 -93 97 -36 7 -261 10 -270 3z m238 -80 c16 -16 18
-25 10 -40 -11 -21 -30 -28 -80 -30 -68 -4 -67 -4 -66 45 l1 45 57 0 c45 0 63
-5 78 -20z"/>
<path d="M136 239 c3 -5 11 -9 19 -9 7 0 16 -6 18 -12 4 -8 6 -7 6 3 1 10 -9
19 -24 21 -13 3 -22 1 -19 -3z"/>
<path d="M279 248 c-6 -29 -1 -125 6 -125 6 0 10 28 10 64 0 35 -3 63 -7 63
-5 0 -8 -1 -9 -2z"/>
<path d="M397 194 c1 -63 11 -79 41 -69 43 13 33 83 -9 72 -15 -4 -18 0 -15
24 2 17 -1 29 -8 29 -7 0 -10 -20 -9 -56z m52 -17 c8 -10 7 -19 -3 -33 -15
-20 -28 -15 -32 13 -5 32 15 43 35 20z"/>
<path d="M820 241 c-11 -4 -15 -22 -15 -63 0 -74 19 -70 25 5 5 56 6 57 25 43
19 -14 19 -15 2 -34 -17 -18 -16 -20 9 -46 33 -33 46 -25 14 9 -21 22 -21 25
-6 41 12 12 14 20 6 29 -14 16 -41 24 -60 16z"/>
<path d="M96 224 c-35 -35 -37 -50 -9 -78 30 -30 83 -33 91 -6 4 12 2 13 -9 3
-46 -44 -106 31 -62 79 20 22 11 24 -11 2z"/>
<path d="M1466 207 c3 -10 9 -15 12 -12 3 3 0 11 -7 18 -10 9 -11 8 -5 -6z"/>
<path d="M634 203 c-14 -5 -3 -75 13 -80 8 -3 9 6 3 32 -7 30 -6 35 6 31 8 -3
14 -1 14 3 0 11 -21 19 -36 14z"/>
<path d="M200 181 c-18 -35 19 -77 44 -51 7 7 7 11 1 10 -24 -5 -35 1 -35 21
0 11 4 17 10 14 6 -3 7 1 4 9 -8 21 -11 20 -24 -3z"/>
<path d="M236 186 c3 -9 11 -16 16 -16 13 0 5 23 -10 28 -7 2 -10 -2 -6 -12z"/>
<path d="M326 184 c-9 -8 -16 -19 -16 -24 0 -11 29 -40 40 -40 5 0 12 5 15 10
4 6 3 10 -2 9 -22 -4 -33 3 -33 22 0 13 4 18 12 13 7 -4 8 -3 4 4 -4 7 -3 12
3 12 5 0 11 -6 14 -12 2 -7 8 -10 12 -6 10 9 -3 28 -20 28 -7 0 -21 -7 -29
-16z"/>
<path d="M488 160 c-2 -27 1 -36 12 -36 12 0 14 9 11 35 -2 22 0 31 7 27 6 -3
13 -2 17 4 4 6 -4 9 -19 8 -20 -2 -25 -8 -28 -38z"/>
<path d="M563 193 c-7 -2 -13 -9 -13 -15 0 -6 6 -6 15 2 16 13 17 10 19 -29 1
-13 6 -26 12 -28 7 -2 9 9 5 33 -6 38 -15 47 -38 37z"/>
<path d="M719 191 c11 -7 11 -9 0 -14 -8 -3 -3 -6 10 -6 20 -1 21 1 11 14 -7
8 -18 15 -24 15 -6 0 -5 -4 3 -9z"/>
<path d="M922 191 c-18 -11 -11 -51 10 -65 13 -8 21 -7 30 2 11 11 10 12 -4 7
-11 -4 -20 1 -28 14 -8 15 -8 21 0 21 6 0 8 5 5 10 -3 6 1 10 10 10 9 0 13 -4
10 -10 -3 -5 1 -10 11 -10 13 0 14 3 4 15 -14 17 -29 19 -48 6z"/>
<path d="M996 179 c-25 -36 7 -71 42 -48 16 10 16 10 0 5 -9 -2 -22 2 -28 9
-16 19 -4 49 15 41 8 -3 17 -1 20 4 12 20 -35 9 -49 -11z"/>
<path d="M1063 181 c-9 -15 -8 -23 3 -40 18 -26 36 -27 56 -3 18 19 8 62 -14
62 -9 0 -9 -3 0 -12 15 -15 16 -45 1 -54 -6 -3 -18 0 -26 9 -12 11 -13 19 -4
36 14 26 0 28 -16 2z"/>
<path d="M1158 165 c9 -19 19 -35 22 -35 4 0 14 16 23 35 9 19 13 35 8 35 -5
0 -12 -11 -15 -25 -7 -29 -26 -24 -26 6 0 10 -6 19 -14 19 -11 0 -11 -6 2 -35z"/>
<path d="M1266 186 c3 -9 11 -16 16 -16 13 0 5 23 -10 28 -7 2 -10 -2 -6 -12z"/>
<path d="M1312 162 c-1 -25 3 -39 11 -39 8 0 11 13 9 39 -5 49 -18 49 -20 0z"/>
<path d="M1345 190 c3 -5 8 -10 11 -10 2 0 4 5 4 10 0 6 -5 10 -11 10 -5 0 -7
-4 -4 -10z"/>
<path d="M1379 183 c5 -10 13 -28 17 -41 9 -22 9 -22 22 -2 10 16 10 20 0 18
-7 -2 -14 7 -16 20 -2 12 -10 22 -18 22 -10 0 -12 -5 -5 -17z"/>
<path d="M1426 183 c-6 -14 -5 -15 5 -6 7 7 10 15 7 18 -3 3 -9 -2 -12 -12z"/>
<path d="M684 175 c-14 -34 26 -70 49 -45 9 10 9 11 -1 6 -19 -11 -41 11 -35
34 6 23 -5 27 -13 5z"/>
<path d="M1226 171 c-16 -25 27 -62 48 -41 7 7 7 11 1 10 -22 -5 -35 1 -35 14
0 8 6 17 13 19 7 3 6 6 -5 6 -9 1 -19 -3 -22 -8z"/>
<path d="M551 147 c-6 -8 -8 -17 -4 -20 12 -13 22 -7 20 13 -2 24 -1 24 -16 7z"/>
<path d="M1386 95 c-3 -8 -1 -15 3 -15 5 0 11 7 15 15 3 8 1 15 -3 15 -5 0
-11 -7 -15 -15z"/>
</g>
</svg>
